<svg xmlns="http://www.w3.org/2000/svg" viewBox="-432.1 -432.1 864.2 864.2" xmlns:c2pa="http://c2pa.org/manifest"><metadata><c2pa:manifest>AAAWgmp1bWIAAAAeanVtZGMycGEAEQAQgAAAqgA4m3EDYzJwYQAAABZcanVtYgAAAEdqdW1kYzJtYQARABCAAACqADibcQN1cm46YzJwYTowYzFlMDIzNC0zNjA0LTQ1ZmQtYjcxOS1iZDQ3NWM1MDA3OTUAAAADl2p1bWIAAAApanVtZGMyYXMAEQAQgAAAqgA4m3EDYzJwYS5hc3NlcnRpb25zAAAAALxqdW1iAAAARGp1bWRjYm9yABEAEIAAAKoAOJtxE2MycGEuaW5ncmVkaWVudC52MwAAAAAYYzJzaGKlz4ZLYYKxocpYnk/u1Q8AAABwY2JvcqNpZGM6Zm9ybWF0bWltYWdlL3N2Zyt4bWxqaW5zdGFuY2VJRHgseG1wOmlpZDo0MmZkOWY1Yy0yMzRiLTRlNDgtODIyMi05Mzc0NjRiYWYyMWZscmVsYXRpb25zaGlwaHBhcmVudE9mAAAB4mp1bWIAAABBanVtZGNib3IAEQAQgAAAqgA4m3ETYzJwYS5hY3Rpb25zLnYyAAAAABhjMnNouTjXzt1xz2DJeLOAvtA8hgAAAZljYm9yomdhY3Rpb25zgqJmYWN0aW9ua2MycGEub3BlbmVkanBhcmFtZXRlcnOha2luZ3JlZGllbnRzgaJjdXJseC1zZWxmI2p1bWJmPWMycGEuYXNzZXJ0aW9ucy9jMnBhLmluZ3JlZGllbnQudjNkaGFzaFggNXLNV0LixWDxut+hMB1bsab60LJRctXV/9DVNIV3Y+mkZmFjdGlvbngdY29tLmFudGhyb3BpYy5jbGF1ZGUucHJvdmlkZWRqcGFyYW1ldGVyc6F4H2NvbS5hbnRocm9waWMub3JpZ2luLWNvbmZpZGVuY2VndW5rbm93bmtkZXNjcmlwdGlvbnhmQ2xhdWRlIHByb3ZpZGVkIHRoaXMgZmlsZSBhdCB0aGUgcmVxdWVzdCBvZiBhIHVzZXIgYW5kIG1heSBoYXZlIGNyZWF0ZWQgb3IgbW9kaWZpZWQgdGhlIGZpbGUgY29udGVudHMubXNvZnR3YXJlQWdlbnShZG5hbWVmQ2xhdWRlcmFsbEFjdGlvbnNJbmNsdWRlZPUAAADIanVtYgAAAEBqdW1kY2JvcgARABCAAACqADibcRNjMnBhLmhhc2guZGF0YQAAAAAYYzJzaOZ2/M/1Jy6vXaF85K7GkSMAAACAY2JvcqVjYWxnZnNoYTI1NmNwYWRNAAAAAAAAAAAAAAAAAGRoYXNoWCB7HzbHGFIEO/ozJDAj/tNXeTbI5Aln6GTZGvQ/3vm4t2RuYW1lbmp1bWJmIG1hbmlmZXN0amV4Y2x1c2lvbnOBomVzdGFydBiLZmxlbmd0aBkeBAAAAj5qdW1iAAAAJ2p1bWRjMmNsABEAEIAAAKoAOJtxA2MycGEuY2xhaW0udjIAAAACD2Nib3KlY2FsZ2ZzaGEyNTZpc2lnbmF0dXJleE1zZWxmI2p1bWJmPS9jMnBhL3VybjpjMnBhOjBjMWUwMjM0LTM2MDQtNDVmZC1iNzE5LWJkNDc1YzUwMDc5NS9jMnBhLnNpZ25hdHVyZWppbnN0YW5jZUlEeCx4bXA6aWlkOjlhNzc1MGY2LTMwNDYtNDY2Yy05ZGQwLTQzYWQ0NjBjOTUwNHJjcmVhdGVkX2Fzc2VydGlvbnODomN1cmx4LXNlbGYjanVtYmY9YzJwYS5hc3NlcnRpb25zL2MycGEuaW5ncmVkaWVudC52M2RoYXNoWCA1cs1XQuLFYPG636EwHVuxpvrQslFy1dX/0NU0hXdj6aJjdXJseCpzZWxmI2p1bWJmPWMycGEuYXNzZXJ0aW9ucy9jMnBhLmFjdGlvbnMudjJkaGFzaFggbsDgvNk56/P+tuvsKxU5JLoNp/NykRwP61F8C+/RxQSiY3VybHgpc2VsZiNqdW1iZj1jMnBhLmFzc2VydGlvbnMvYzJwYS5oYXNoLmRhdGFkaGFzaFggtxIMGFOzWZev7catVdcKd1oXJzgjp8R4k+mEhAld/4B0Y2xhaW1fZ2VuZXJhdG9yX2luZm+jZG5hbWVvQW50aHJvcGljIEZpbGVzZ3ZlcnNpb25lMS4wLjBrc3BlY1ZlcnNpb25lMi40LjAAABA4anVtYgAAAChqdW1kYzJjcwARABCAAACqADibcQNjMnBhLnNpZ25hdHVyZQAAABAIY2JvctKEWQISogEmGCFZAgowggIGMIIBjaADAgECAhRA5aAK7sI50L64g/oGQgU9Z1UTADAKBggqhkjOPQQDAzBJMRcwFQYDVQQKEw5BbnRocm9waWMsIFBCQzEuMCwGA1UEAxMlQW50aHJvcGljIENvbnRlbnQgQ3JlZGVudGlhbHMgUm9vdCBDQTAeFw0yNjA4MDcxODQzNTZaFw0yODA4MDYxOTQzNTZaMEQxFzAVBgNVBAoTDkFudGhyb3BpYywgUEJDMSkwJwYDVQQDEyBBbnRocm9waWMgQ2xhdWRlIENvbnRlbnQgU2lnbmluZzBZMBMGByqGSM49AgEGCCqGSM49AwEHA0IABJh6CmvLUBgFFNU0vUKlOVtE6djd17L5SuwX0LemFisBM3dkd/3cyjxFA3Qo5S46fX0/ihY0VZ7mfb9KF703t5OjWDBWMA4GA1UdDwEB/wQEAwIHgDAVBgNVHSUEDjAMBgorBgEEAYPoXgIBMAwGA1UdEwEB/wQCMAAwHwYDVR0jBBgwFoAUzlHiBIFOZFsj+OPEz5o+nMHXXMIwCgYIKoZIzj0EAwMDZwAwZAIwMXMdFJ4BetLLVY7ORuE9noqbbAZOZn/aArXyTwFAZfKrPzxF2vPoJNf1+UCdg1XGAjBwX1zd9WGqYkqmL5SFqw1QySjr1zJfpJM9+1rdDwSPLMOPOjKuiXjoU/pUUeG9RwmhY3BhZFkNngAAAAAAAAAAAAAAAAAAAAAAAAAAAAAAAAAAAAAAAAAAAAAAAAAAAAAAAAAAAAAAAAAAAAAAAAAAAAAAAAAAAAAAAAAAAAAAAAAAAAAAAAAAAAAAAAAAAAAAAAAAAAAAAAAAAAAAAAAAAAAAAAAAAAAAAAAAAAAAAAAAAAAAAAAAAAAAAAAAAAAAAAAAAAAAAAAAAAAAAAAAAAAAAAAAAAAAAAAAAAAAAAAAAAAAAAAAAAAAAAAAAAAAAAAAAAAAAAAAAAAAAAAAAAAAAAAAAAAAAAAAAAAAAAAAAAAAAAAAAAAAAAAAAAAAAAAAAAAAAAAAAAAAAAAAAAAAAAAAAAAAAAAAAAAAAAAAAAAAAAAAAAAAAAAAAAAAAAAAAAAAAAAAAAAAAAAAAAAAAAAAAAAAAAAAAAAAAAAAAAAAAAAAAAAAAAAAAAAAAAAAAAAAAAAAAAAAAAAAAAAAAAAAAAAAAAAAAAAAAAAAAAAAAAAAAAAAAAAAAAAAAAAAAAAAAAAAAAAAAAAAAAAAAAAAAAAAAAAAAAAAAAAAAAAAAAAAAAAAAAAAAAAAAAAAAAAAAAAAAAAAAAAAAAAAAAAAAAAAAAAAAAAAAAAAAAAAAAAAAAAAAAAAAAAAAAAAAAAAAAAAAAAAAAAAAAAAAAAAAAAAAAAAAAAAAAAAAAAAAAAAAAAAAAAAAAAAAAAAAAAAAAAAAAAAAAAAAAAAAAAAAAAAAAAAAAAAAAAAAAAAAAAAAAAAAAAAAAAAAAAAAAAAAAAAAAAAAAAAAAAAAAAAAAAAAAAAAAAAAAAAAAAAAAAAAAAAAAAAAAAAAAAAAAAAAAAAAAAAAAAAAAAAAAAAAAAAAAAAAAAAAAAAAAAAAAAAAAAAAAAAAAAAAAAAAAAAAAAAAAAAAAAAAAAAAAAAAAAAAAAAAAAAAAAAAAAAAAAAAAAAAAAAAAAAAAAAAAAAAAAAAAAAAAAAAAAAAAAAAAAAAAAAAAAAAAAAAAAAAAAAAAAAAAAAAAAAAAAAAAAAAAAAAAAAAAAAAAAAAAAAAAAAAAAAAAAAAAAAAAAAAAAAAAAAAAAAAAAAAAAAAAAAAAAAAAAAAAAAAAAAAAAAAAAAAAAAAAAAAAAAAAAAAAAAAAAAAAAAAAAAAAAAAAAAAAAAAAAAAAAAAAAAAAAAAAAAAAAAAAAAAAAAAAAAAAAAAAAAAAAAAAAAAAAAAAAAAAAAAAAAAAAAAAAAAAAAAAAAAAAAAAAAAAAAAAAAAAAAAAAAAAAAAAAAAAAAAAAAAAAAAAAAAAAAAAAAAAAAAAAAAAAAAAAAAAAAAAAAAAAAAAAAAAAAAAAAAAAAAAAAAAAAAAAAAAAAAAAAAAAAAAAAAAAAAAAAAAAAAAAAAAAAAAAAAAAAAAAAAAAAAAAAAAAAAAAAAAAAAAAAAAAAAAAAAAAAAAAAAAAAAAAAAAAAAAAAAAAAAAAAAAAAAAAAAAAAAAAAAAAAAAAAAAAAAAAAAAAAAAAAAAAAAAAAAAAAAAAAAAAAAAAAAAAAAAAAAAAAAAAAAAAAAAAAAAAAAAAAAAAAAAAAAAAAAAAAAAAAAAAAAAAAAAAAAAAAAAAAAAAAAAAAAAAAAAAAAAAAAAAAAAAAAAAAAAAAAAAAAAAAAAAAAAAAAAAAAAAAAAAAAAAAAAAAAAAAAAAAAAAAAAAAAAAAAAAAAAAAAAAAAAAAAAAAAAAAAAAAAAAAAAAAAAAAAAAAAAAAAAAAAAAAAAAAAAAAAAAAAAAAAAAAAAAAAAAAAAAAAAAAAAAAAAAAAAAAAAAAAAAAAAAAAAAAAAAAAAAAAAAAAAAAAAAAAAAAAAAAAAAAAAAAAAAAAAAAAAAAAAAAAAAAAAAAAAAAAAAAAAAAAAAAAAAAAAAAAAAAAAAAAAAAAAAAAAAAAAAAAAAAAAAAAAAAAAAAAAAAAAAAAAAAAAAAAAAAAAAAAAAAAAAAAAAAAAAAAAAAAAAAAAAAAAAAAAAAAAAAAAAAAAAAAAAAAAAAAAAAAAAAAAAAAAAAAAAAAAAAAAAAAAAAAAAAAAAAAAAAAAAAAAAAAAAAAAAAAAAAAAAAAAAAAAAAAAAAAAAAAAAAAAAAAAAAAAAAAAAAAAAAAAAAAAAAAAAAAAAAAAAAAAAAAAAAAAAAAAAAAAAAAAAAAAAAAAAAAAAAAAAAAAAAAAAAAAAAAAAAAAAAAAAAAAAAAAAAAAAAAAAAAAAAAAAAAAAAAAAAAAAAAAAAAAAAAAAAAAAAAAAAAAAAAAAAAAAAAAAAAAAAAAAAAAAAAAAAAAAAAAAAAAAAAAAAAAAAAAAAAAAAAAAAAAAAAAAAAAAAAAAAAAAAAAAAAAAAAAAAAAAAAAAAAAAAAAAAAAAAAAAAAAAAAAAAAAAAAAAAAAAAAAAAAAAAAAAAAAAAAAAAAAAAAAAAAAAAAAAAAAAAAAAAAAAAAAAAAAAAAAAAAAAAAAAAAAAAAAAAAAAAAAAAAAAAAAAAAAAAAAAAAAAAAAAAAAAAAAAAAAAAAAAAAAAAAAAAAAAAAAAAAAAAAAAAAAAAAAAAAAAAAAAAAAAAAAAAAAAAAAAAAAAAAAAAAAAAAAAAAAAAAAAAAAAAAAAAAAAAAAAAAAAAAAAAAAAAAAAAAAAAAAAAAAAAAAAAAAAAAAAAAAAAAAAAAAAAAAAAAAAAAAAAAAAAAAAAAAAAAAAAAAAAAAAAAAAAAAAAAAAAAAAAAAAAAAAAAAAAAAAAAAAAAAAAAAAAAAAAAAAAAAAAAAAAAAAAAAAAAAAAAAAAAAAAAAAAAAAAAAAAAAAAAAAAAAAAAAAAAAAAAAAAAAAAAAAAAAAAAAAAAAAAAAAAAAAAAAAAAAAAAAAAAAAAAAAAAAAAAAAAAAAAAAAAAAAAAAAAAAAAAAAAAAAAAAAAAAAAAAAAAAAAAAAAAAAAAAAAAAAAAAAAAAAAAAAAAAAAAAAAAAAAAAAAAAAAAAAAAAAAAAAAAAAAAAAAAAAAAAAAAAAAAAAAAAAAAAAAAAAAAAAAAAAAAAAAAAAAAAAAAAAAAAAAAAAAAAAAAAAAAAAAAAAAAAAAAAAAAAAAAAAAAAAAAAAAAAAAAAAAAAAAAAAAAAAAAAAAAAAAAAAAAAAAAAAAAAAAAAAAAAAAAAAAAAAAAAAAAAAAAAAAAAAAAAAAAAAAAAAAAAAAAAAAAAAAAAAAAAAAAAAAAAAAAAAAAAAAAAAAAAAAAAAAAAAAAAAAAAAAAAAAAAAAAAAAAAAAAAAAAAAAAAAAAAAAAAAAAAAAAAAAAAAAAAAAAAAAAAAAAAAAAAAAAAAAAAAAAAAAAAAAAAAAAAAAAAAAAAAAAAAAAAAAAAAAAAAAAAAAAAAAAAAAAAAAAAAAAAAAAAAAAAAAAAAAAAAAAAAAAAAAAAAAAAAAAAAAAAAAAAAAAAAAAAAAAAAAAAAAAAAAAAAAAAAAAAAAAAAAAAAAAAAAAAAAAAAAAAAAAAAAAAAAAAAAAAAAAAAAAAAAAAAAAAAAAAAAAAAAAAAAAAAAAAAAAAAAAAAAAAAAAAAAAAAAAAAAAAAAAAAAAAAAAAAAAAAAAAAAAAAAAAAAAAAAAAAAAAAAAAAAAAAAAAAAAAAAAAAAAAAAAAAAAAAAAAAAAAAAAAAAAAAAAAAAAAAAAAAAAAAAAAAAAAAAAAAAAAAAAAAAAAAAAAAAAAAAAAAAAAAAAAAAAAAAAAAAAAAAAAAAAAAAAAAAAAAAAAAAAAAAAAAAAAAAAAAAAAAAAAAAAAAAAAAAAAAAAAAAAAAAAAAAAAAAAAAAAAAAAAAAAAAAAAAAAAAAAAAAAAAAAAAAAAAAAAAAAAAAAAAAAAAAAAAAAAAAAAAAAAAAAAAAAAAAAAAAAAAAAAAAAAAAAAAAAAAAAAAAAAAAAAAAAAAAAAAAAAAAAAAAAAAAAAAAAAAAAAAAAAAAAAAAAAAAAAAAAAAAAAAAAAAAAAAAAAAAAAAAAAAAAAAAAAAAAAAAAAAAAAAAAAAAAAAAAAAAAAAAAAAAAAAAAAAAAAAAAAAAAAAAAAAAAAAAAAAAAAAAAAAAAAAAAAAAAAAAAAAAAAAAAAAAAAAAAAAAAAAAAAAAAAAAAAAAAAAAAAAAAAAAAAAAAAAAAAAAAAAAAAAAAAAAAAAAAAAAAAAAAAAAAAAAAAAAAAAAAAAAAAAAAAAAAAAAAAAAAAAAAAAAAAAAAAAAAAAAAAAAAAAAAAAAAAAAAAAAAAAAAAAAAAAAAAAAAAAAAAAAAAAAAAAAAAAAAAAAAAAAAAAAAAAAAAAAAAAAAAAAAAAAAAAAAAAAAAAAAAAAAAAAAAAAAAAAAAAAAAAAAAAAAAAAAAAAAAAAAAAAAAAAAAAAAAAAAAAAAAAAAAAAAAAAAAAAAAAAAAAAAAAAAAAAAAAAAAAAAAAAAAAAAAAAAAAAAAAAAAAAAAAAAAAAAAAAAAAAAAAAAAAAAAAAAAAAAAAAAAAAAAAAAAAAAAAAAAAAAAAAAAAAAAAAAAAAAAAAAAAAAAAAAAAAAAAAAAAAAAAAAAAAAAAAAAAAAAAAAAAAAAAAAAAAAAAAAAAAAAAAAAAAAAAAAAAAAAAAAAAAAAAAAAAAAAAAAAAAAAAAAAAAAAAAAAAAAAAAAAAAAAAAAPZYQLs6gQ5U02Nj2dKDmoqu30jlZUBhiGljX/VlxcdeRU969nMbrMxxrUkLZTx0UhMgBoZIbG1/22D86gy2LM/rs4c=</c2pa:manifest></metadata><rect x="-432.1" y="-432.1" width="864.2" height="864.2" fill="#1B2A4A"/><g fill="#FFFFFF"><path d="M-203.54999999999998 94.2H-336.15Q-337.05 94.2 -337.05 92.4Q-337.05 90.60000000000001 -336.15 90.60000000000001Q-326.84999999999997 90.60000000000001 -322.34999999999997 89.10000000000001Q-317.84999999999997 87.60000000000001 -316.34999999999997 83.10000000000001Q-314.84999999999997 78.60000000000001 -314.84999999999997 69.9V-68.99999999999999Q-314.84999999999997 -77.7 -316.34999999999997 -82.05Q-317.84999999999997 -86.39999999999999 -322.34999999999997 -88.05Q-326.84999999999997 -89.7 -336.15 -89.7Q-337.05 -89.7 -337.05 -91.5Q-337.05 -93.3 -336.15 -93.3H-208.95Q-205.95 -93.3 -205.95 -90.59999999999998L-205.35 -50.7Q-205.35 -50.09999999999998 -206.85 -49.79999999999998Q-208.35 -49.499999999999986 -208.95 -50.39999999999999Q-213.75 -68.09999999999998 -225.15 -76.34999999999998Q-236.55 -84.59999999999998 -255.14999999999998 -84.59999999999998H-264.15Q-270.15 -84.59999999999998 -274.04999999999995 -82.94999999999999Q-277.95 -81.3 -279.75 -77.69999999999999Q-281.55 -74.09999999999998 -281.55 -68.7V68.7Q-281.55 74.4 -280.05 78.30000000000001Q-278.55 82.2 -275.55 84.0Q-272.55 85.8 -267.75 85.8H-257.85Q-234.45 85.8 -220.35 76.2Q-206.25 66.60000000000001 -199.65 46.50000000000001Q-199.35 45.6 -197.7 46.050000000000004Q-196.04999999999998 46.50000000000001 -196.04999999999998 47.1Q-197.25 55.800000000000004 -198.14999999999998 67.65Q-199.04999999999998 79.5 -199.04999999999998 89.7Q-199.04999999999998 94.2 -203.54999999999998 94.2ZM-220.35 27.30000000000001Q-220.35 15.0 -229.64999999999998 7.950000000000003Q-238.95 0.9000000000000057 -256.95 0.9000000000000057H-297.45V-7.5H-256.65Q-238.95 -7.5 -229.79999999999998 -13.649999999999999Q-220.64999999999998 -19.799999999999997 -220.64999999999998 -30.299999999999997Q-220.64999999999998 -31.19999999999999 -219.0 -31.19999999999999Q-217.35 -31.19999999999999 -217.35 -30.299999999999997Q-217.35 -20.39999999999999 -217.5 -14.849999999999994Q-217.65 -9.299999999999997 -217.65 -3.299999999999997Q-217.65 4.200000000000003 -217.2 11.400000000000006Q-216.75 18.60000000000001 -216.75 27.30000000000001Q-216.75 27.900000000000006 -218.55 27.900000000000006Q-220.35 27.900000000000006 -220.35 27.30000000000001Z"/><path d="M6.150000000000006 94.2Q1.6500000000000057 94.2 -8.399999999999991 82.95Q-18.44999999999999 71.7 -32.54999999999999 50.400000000000006Q-46.64999999999999 29.10000000000001 -64.35 -0.5999999999999943L-36.75 -9.0Q-12.75 27.30000000000001 4.200000000000003 49.20000000000001Q21.150000000000006 71.10000000000001 34.35000000000001 80.85000000000001Q47.55000000000001 90.60000000000001 59.55000000000001 90.60000000000001Q60.150000000000006 90.60000000000001 60.150000000000006 92.4Q60.150000000000006 94.2 59.55000000000001 94.2Q38.55000000000001 94.2 25.35000000000001 94.2Q12.150000000000006 94.2 6.150000000000006 94.2ZM-58.349999999999994 -94.2Q-30.75 -94.2 -15.900000000000006 -84.14999999999999Q-1.0500000000000114 -74.09999999999998 -1.0500000000000114 -56.09999999999998Q-1.0500000000000114 -38.39999999999999 -10.950000000000003 -24.749999999999993Q-20.849999999999994 -11.099999999999994 -36.3 -3.5999999999999943Q-51.75 3.9000000000000057 -68.85 3.9000000000000057Q-73.05 3.9000000000000057 -77.4 3.9000000000000057Q-81.75 3.9000000000000057 -85.35 3.6000000000000085V69.9Q-85.35 78.60000000000001 -83.85 83.10000000000001Q-82.35 87.60000000000001 -77.85 89.10000000000001Q-73.35 90.60000000000001 -64.05 90.60000000000001Q-63.45 90.60000000000001 -63.45 92.4Q-63.45 94.2 -64.05 94.2Q-71.85 94.2 -81.44999999999999 93.9Q-91.05 93.60000000000001 -102.44999999999999 93.60000000000001Q-113.25 93.60000000000001 -123.0 93.9Q-132.75 94.2 -140.54999999999998 94.2Q-141.45 94.2 -141.45 92.4Q-141.45 90.60000000000001 -140.54999999999998 90.60000000000001Q-131.25 90.60000000000001 -126.75 89.10000000000001Q-122.25 87.60000000000001 -120.6 83.10000000000001Q-118.94999999999999 78.60000000000001 -118.94999999999999 69.9V-68.99999999999999Q-118.94999999999999 -77.7 -120.44999999999999 -82.05Q-121.94999999999999 -86.39999999999999 -126.44999999999999 -88.05Q-130.95 -89.7 -140.25 -89.7Q-140.85 -89.7 -140.85 -91.5Q-140.85 -93.3 -140.25 -93.3Q-132.45 -93.3 -122.85 -92.85Q-113.25 -92.39999999999999 -102.44999999999999 -92.39999999999999Q-92.55 -92.39999999999999 -80.69999999999999 -93.3Q-68.85 -94.2 -58.349999999999994 -94.2ZM-35.25 -44.7Q-35.25 -62.39999999999999 -38.85 -71.69999999999999Q-42.45 -80.99999999999999 -48.75 -84.44999999999999Q-55.05 -87.89999999999999 -63.14999999999999 -87.89999999999999Q-75.14999999999999 -87.89999999999999 -80.25 -83.39999999999999Q-85.35 -78.89999999999999 -85.35 -68.39999999999999V-4.799999999999997Q-81.14999999999999 -4.199999999999989 -76.35 -3.8999999999999915Q-71.55 -3.5999999999999943 -67.95 -3.5999999999999943Q-50.25 -3.5999999999999943 -42.75 -13.349999999999994Q-35.25 -23.099999999999994 -35.25 -44.7Z"/><path d="M121.65 56.1 124.65 -86.39999999999999 133.35000000000002 -85.8 130.05 56.1Q129.75 72.0 136.5 81.30000000000001Q143.25 90.60000000000001 155.55 90.60000000000001Q156.45 90.60000000000001 156.45 92.4Q156.45 94.2 155.55 94.2Q148.95000000000002 94.2 142.05 93.9Q135.15 93.60000000000001 126.45000000000002 93.60000000000001Q116.85000000000001 93.60000000000001 109.05000000000001 93.9Q101.25000000000001 94.2 94.65 94.2Q93.75000000000001 94.2 93.75000000000001 92.4Q93.75000000000001 90.60000000000001 94.65 90.60000000000001Q106.95000000000002 90.60000000000001 114.15 81.30000000000001Q121.35000000000001 72.0 121.65 56.1ZM336.45 90.60000000000001Q337.05 90.60000000000001 337.05 92.4Q337.05 94.2 336.45 94.2Q328.65 94.2 318.75 93.9Q308.85 93.60000000000001 298.05 93.60000000000001Q286.95000000000005 93.60000000000001 277.35 93.9Q267.75 94.2 259.95000000000005 94.2Q259.05 94.2 259.05 92.4Q259.05 90.60000000000001 259.95000000000005 90.60000000000001Q274.05 90.60000000000001 278.1 86.7Q282.15 82.8 281.25 69.9L274.35 -63.3L289.65 -87.3L213.15 92.10000000000001Q212.85000000000002 93.3 210.9 93.3Q208.95 93.3 208.35000000000002 92.10000000000001L124.05000000000001 -68.39999999999999Q112.65 -89.7 96.75000000000001 -89.7Q95.85000000000001 -89.7 95.85000000000001 -91.5Q95.85000000000001 -93.3 96.75000000000001 -93.3Q103.05000000000001 -93.3 109.95000000000002 -93.0Q116.85000000000001 -92.7 121.65 -92.7Q129.45000000000002 -92.7 135.3 -93.0Q141.15 -93.3 144.45000000000002 -93.3Q148.65 -93.3 150.9 -90.3Q153.15 -87.3 158.25 -77.7L225.45000000000002 48.300000000000004L210.45 75.30000000000001L280.65 -85.8Q282.45000000000005 -89.99999999999999 284.40000000000003 -91.64999999999999Q286.35 -93.3 289.65 -93.3Q292.65 -93.3 295.95 -93.0Q299.25 -92.7 303.75 -92.7Q313.35 -92.7 320.1 -93.0Q326.85 -93.3 333.45 -93.3Q334.35 -93.3 334.35 -91.5Q334.35 -89.7 333.45 -89.7Q319.65 -89.7 313.2 -84.0Q306.75 -78.3 307.35 -66.3L314.55 69.9Q315.15 78.60000000000001 316.79999999999995 83.10000000000001Q318.45 87.60000000000001 322.95 89.10000000000001Q327.45 90.60000000000001 336.45 90.60000000000001Z"/></g></svg>